<svg xmlns="http://www.w3.org/2000/svg" xmlns:xlink="http://www.w3.org/1999/xlink" id="Layer_1" x="0" y="0" enable-background="new 0 0 647 189" version="1.1" viewBox="0 0 647 189" xml:space="preserve"><style type="text/css">.st0{fill:#39b54a}.st1{fill:#009245}.st2{fill:#fff}.st3{font-family:&apos;IBMPlexSans-Light&apos;}.st4{font-size:10px}.st5{fill:#c9b292}.st6{font-family:&apos;IBMPlexSans&apos;}.st7{fill:#9c8156}.st8{fill:#bc9f77}.st9{fill:#8cc63f}.st10,.st11{fill:none;stroke:#c69c6d;stroke-miterlimit:10}.st11{stroke-dasharray:5.7093,5.7093}.st12{fill:#f09b36}.st13{fill:#754c24}.st14,.st15{stroke:#c7b299}.st14,.st15,.st16{fill:none;stroke-miterlimit:10}.st15,.st16{stroke-dasharray:5.6777,5.6777}.st16{stroke:#c69c6d}</style><rect width="72.3" height="27" x="13.4" y="118.5" class="st0"/><rect width="288" height="27" x="13.4" y="145.5" class="st1"/><text class="st2 st3 st4" transform="matrix(1 0 0 1 36.5353 136.5)">DRAM</text><text class="st2 st3 st4" transform="matrix(1 0 0 1 115.202 163.5)">TCP/IP or RDMA Network</text><rect width="72.3" height="54" x="13.4" y="64.5" class="st5"/><text class="st2 st6 st4" transform="matrix(1 0 0 1 26.0959 88.5)">Key-Value</text><text class="st2 st6 st4" transform="matrix(1 0 0 1 40.8959 100.5)">API</text><rect width="72" height="27" x="13.4" y="37.5" class="st7"/><text class="st2 st3 st4" transform="matrix(1 0 0 1 40.0124 55.5)">App</text><rect width="101" height="27" x="200.4" y="37.5" class="st8"/><text class="st2 st3 st4" transform="matrix(1 0 0 1 222.0082 55.5)">Opaque Data</text><rect width="101.3" height="27" x="200.2" y="118.5" class="st0"/><text class="st2 st3 st4" transform="matrix(1 0 0 1 209.2885 136.5)">Persistent Memory</text><rect width="101.3" height="27" x="200.2" y="91.5" class="st9"/><text class="st2 st3 st4" transform="matrix(1 0 0 1 222.6735 108.5)">Transactions</text><rect width="101" height="27" x="200.4" y="64.5" class="st5"/><text class="st2 st3 st4" transform="matrix(1 0 0 1 214.2585 82.5)">Key-Value Index</text><g><g><line x1="85.9" x2="88.9" y1="78" y2="78" class="st10"/><line x1="94.6" x2="194.5" y1="78" y2="78" class="st11"/><line x1="197.3" x2="200.3" y1="78" y2="78" class="st10"/></g></g><rect width="72" height="27" x="346.4" y="118.5" class="st0"/><rect width="288" height="27" x="346.4" y="145.5" class="st1"/><text class="st2 st3 st4" transform="matrix(1 0 0 1 369.5353 136.5)">DRAM</text><text class="st2 st3 st4" transform="matrix(1 0 0 1 450.8687 163.5)">TCP/IP or RDMA Network</text><rect width="72" height="54" x="346.4" y="64.5" class="st5"/><text class="st2 st3 st4" transform="matrix(1 0 0 1 360.1457 82.5)">Enhanced</text><text class="st2 st3 st4" transform="matrix(1 0 0 1 359.5457 94.5)">Key-Value</text><text class="st2 st3 st4" transform="matrix(1 0 0 1 374.0457 106.5)">API</text><rect width="72" height="27" x="346.4" y="37.5" class="st12"/><text class="st13 st3 st4" transform="matrix(1 0 0 1 444.2159 44.8333)">Open Protocol</text><text class="st2 st3 st4" transform="matrix(1 0 0 1 353.0829 55.0003)">ADO Adapter</text><rect width="72" height="27" x="346.4" y="10.5" class="st7"/><text class="st2 st3 st4" transform="matrix(1 0 0 1 373.0124 28.5)">App</text><rect width="101.3" height="27" x="532.7" y="37.5" class="st12"/><text class="st2 st3 st4" transform="matrix(1 0 0 1 558.46 55.5)">ADO Plugin</text><rect width="101.6" height="27" x="532.6" y="118.5" class="st0"/><text class="st2 st3 st4" transform="matrix(1 0 0 1 541.8301 136.5)">Persistent Memory</text><rect width="101.6" height="27" x="532.6" y="91.5" class="st9"/><text class="st2 st3 st4" transform="matrix(1 0 0 1 555.2148 108.5)">Transactions</text><rect width="101.3" height="27" x="532.7" y="64.5" class="st5"/><text class="st2 st3 st4" transform="matrix(1 0 0 1 546.7998 82.5)">Key-Value Index</text><g><g><line x1="418.9" x2="421.9" y1="51.5" y2="51.5" class="st14"/><line x1="427.5" x2="526.9" y1="51.5" y2="51.5" class="st15"/><line x1="529.7" x2="532.7" y1="51.5" y2="51.5" class="st14"/></g></g><g><g><line x1="418.9" x2="421.9" y1="78.5" y2="78.5" class="st10"/><line x1="427.5" x2="526.9" y1="78.5" y2="78.5" class="st16"/><line x1="529.7" x2="532.7" y1="78.5" y2="78.5" class="st10"/></g></g><text class="st13 st3 st4" transform="matrix(1 0 0 1 443.0309 91.5003)">MCAS Protocol</text><text class="st13 st3 st4" transform="matrix(1 0 0 1 105.6609 91.5003)">MCAS Protocol</text></svg>