<?xml version="1.0" encoding="utf-8"?>
<!-- Generator: Adobe Illustrator 22.0.0, SVG Export Plug-In . SVG Version: 6.00 Build 0)  -->
<svg version="1.1" id="Layer_1" xmlns="http://www.w3.org/2000/svg" xmlns:xlink="http://www.w3.org/1999/xlink" x="0px" y="0px"
	 viewBox="0 0 647 189" style="enable-background:new 0 0 647 189;" xml:space="preserve">
<style type="text/css">
	.st0{fill:#39B54A;}
	.st1{fill:#009245;}
	.st2{fill:#FFFFFF;}
	.st3{font-family:'IBMPlexSans-Light';}
	.st4{font-size:10px;}
	.st5{fill:#C9B292;}
	.st6{font-family:'IBMPlexSans';}
	.st7{fill:#9C8156;}
	.st8{fill:#BC9F77;}
	.st9{fill:#8CC63F;}
	.st10{fill:none;stroke:#C69C6D;stroke-miterlimit:10;}
	.st11{fill:none;stroke:#C69C6D;stroke-miterlimit:10;stroke-dasharray:5.7093,5.7093;}
	.st12{fill:#F09B36;}
	.st13{fill:#754C24;}
	.st14{fill:none;stroke:#C7B299;stroke-miterlimit:10;}
	.st15{fill:none;stroke:#C7B299;stroke-miterlimit:10;stroke-dasharray:5.6777,5.6777;}
	.st16{fill:none;stroke:#C69C6D;stroke-miterlimit:10;stroke-dasharray:5.6777,5.6777;}
</style>
<rect x="13.4" y="118.5" class="st0" width="72.3" height="27"/>
<rect x="13.4" y="145.5" class="st1" width="288" height="27"/>
<text transform="matrix(1 0 0 1 36.5353 136.5)" class="st2 st3 st4">DRAM</text>
<text transform="matrix(1 0 0 1 115.202 163.5)" class="st2 st3 st4">TCP/IP or RDMA Network</text>
<rect x="13.4" y="64.5" class="st5" width="72.3" height="54"/>
<text transform="matrix(1 0 0 1 26.0959 88.5)" class="st2 st6 st4">Key-Value</text>
<text transform="matrix(1 0 0 1 40.8959 100.5)" class="st2 st6 st4">API</text>
<rect x="13.4" y="37.5" class="st7" width="72" height="27"/>
<text transform="matrix(1 0 0 1 40.0124 55.5)" class="st2 st3 st4">App</text>
<rect x="200.4" y="37.5" class="st8" width="101" height="27"/>
<text transform="matrix(1 0 0 1 222.0082 55.5)" class="st2 st3 st4">Opaque Data</text>
<rect x="200.2" y="118.5" class="st0" width="101.3" height="27"/>
<text transform="matrix(1 0 0 1 209.2885 136.5)" class="st2 st3 st4">Persistent Memory</text>
<rect x="200.2" y="91.5" class="st9" width="101.3" height="27"/>
<text transform="matrix(1 0 0 1 222.6735 108.5)" class="st2 st3 st4">Transactions</text>
<rect x="200.4" y="64.5" class="st5" width="101" height="27"/>
<text transform="matrix(1 0 0 1 214.2585 82.5)" class="st2 st3 st4">Key-Value Index</text>
<g>
	<g>
		<line class="st10" x1="85.9" y1="78" x2="88.9" y2="78"/>
		<line class="st11" x1="94.6" y1="78" x2="194.5" y2="78"/>
		<line class="st10" x1="197.3" y1="78" x2="200.3" y2="78"/>
	</g>
</g>
<rect x="346.4" y="118.5" class="st0" width="72" height="27"/>
<rect x="346.4" y="145.5" class="st1" width="288" height="27"/>
<text transform="matrix(1 0 0 1 369.5353 136.5)" class="st2 st3 st4">DRAM</text>
<text transform="matrix(1 0 0 1 450.8687 163.5)" class="st2 st3 st4">TCP/IP or RDMA Network</text>
<rect x="346.4" y="64.5" class="st5" width="72" height="54"/>
<text transform="matrix(1 0 0 1 360.1457 82.5)" class="st2 st3 st4">Enhanced</text>
<text transform="matrix(1 0 0 1 359.5457 94.5)" class="st2 st3 st4">Key-Value</text>
<text transform="matrix(1 0 0 1 374.0457 106.5)" class="st2 st3 st4">API</text>
<rect x="346.4" y="37.5" class="st12" width="72" height="27"/>
<text transform="matrix(1 0 0 1 444.2159 44.8333)" class="st13 st3 st4">Open Protocol</text>
<text transform="matrix(1 0 0 1 353.0829 55.0003)" class="st2 st3 st4">ADO Adapter</text>
<rect x="346.4" y="10.5" class="st7" width="72" height="27"/>
<text transform="matrix(1 0 0 1 373.0124 28.5)" class="st2 st3 st4">App</text>
<rect x="532.7" y="37.5" class="st12" width="101.3" height="27"/>
<text transform="matrix(1 0 0 1 558.46 55.5)" class="st2 st3 st4">ADO Plugin</text>
<rect x="532.6" y="118.5" class="st0" width="101.6" height="27"/>
<text transform="matrix(1 0 0 1 541.8301 136.5)" class="st2 st3 st4">Persistent Memory</text>
<rect x="532.6" y="91.5" class="st9" width="101.6" height="27"/>
<text transform="matrix(1 0 0 1 555.2148 108.5)" class="st2 st3 st4">Transactions</text>
<rect x="532.7" y="64.5" class="st5" width="101.3" height="27"/>
<text transform="matrix(1 0 0 1 546.7998 82.5)" class="st2 st3 st4">Key-Value Index</text>
<g>
	<g>
		<line class="st14" x1="418.9" y1="51.5" x2="421.9" y2="51.5"/>
		<line class="st15" x1="427.5" y1="51.5" x2="526.9" y2="51.5"/>
		<line class="st14" x1="529.7" y1="51.5" x2="532.7" y2="51.5"/>
	</g>
</g>
<g>
	<g>
		<line class="st10" x1="418.9" y1="78.5" x2="421.9" y2="78.5"/>
		<line class="st16" x1="427.5" y1="78.5" x2="526.9" y2="78.5"/>
		<line class="st10" x1="529.7" y1="78.5" x2="532.7" y2="78.5"/>
	</g>
</g>
<text transform="matrix(1 0 0 1 443.0309 91.5003)" class="st13 st3 st4">MCAS Protocol</text>
<text transform="matrix(1 0 0 1 105.6609 91.5003)" class="st13 st3 st4">MCAS Protocol</text>
</svg>
