<?xml version="1.0" encoding="utf-8"?>
<!-- Generator: Adobe Illustrator 22.0.0, SVG Export Plug-In . SVG Version: 6.00 Build 0)  -->
<svg version="1.1" id="Layer_1" xmlns="http://www.w3.org/2000/svg" xmlns:xlink="http://www.w3.org/1999/xlink" x="0px" y="0px"
	 viewBox="0 0 839 321" style="enable-background:new 0 0 839 321;" xml:space="preserve">
<style type="text/css">
	.st0{fill:#29C0E2;}
	.st1{fill:#0071BC;}
	.st2{fill:none;stroke:#0071BC;stroke-width:3;stroke-miterlimit:10;}
	.st3{fill:#0071BC;stroke:#0071BC;stroke-miterlimit:10;}
	.st4{font-family:'IBMPlexSans-Light';}
	.st5{font-size:12px;}
	.st6{fill:none;stroke:#CCCCCC;stroke-miterlimit:10;}
	.st7{fill:#CCCCCC;}
	.st8{fill:#29ABE2;}
	.st9{fill:#FFFFFF;}
	.st10{font-size:10px;}
	.st11{fill-rule:evenodd;clip-rule:evenodd;fill:#29ABE2;}
	.st12{fill:none;stroke:#F7931E;stroke-miterlimit:10;}
	.st13{fill:none;stroke:#F7931E;stroke-miterlimit:10;stroke-dasharray:2.8042,2.8042;}
	.st14{fill:none;stroke:#F7931E;stroke-miterlimit:10;stroke-dasharray:2.9382,2.9382;}
	.st15{fill:none;stroke:#29ABE2;stroke-miterlimit:10;}
	.st16{fill-rule:evenodd;clip-rule:evenodd;fill:#F2F2F2;stroke:#FBB03B;stroke-width:0.75;stroke-miterlimit:10;}
	.st17{fill:none;stroke:#FBB03B;stroke-width:0.75;stroke-miterlimit:10;}
	.st18{fill:none;stroke:#FBB03B;stroke-width:0.75;stroke-miterlimit:10;stroke-dasharray:1.9442,1.9442;}
	.st19{fill:none;stroke:#FBB03B;stroke-width:0.75;stroke-miterlimit:10;stroke-dasharray:2;}
	.st20{fill:none;stroke:#FBB03B;stroke-width:0.75;stroke-miterlimit:10;stroke-dasharray:2.0067,2.0067;}
	.st21{fill:#FFFFFF;stroke:#0071BC;stroke-miterlimit:10;}
	.st22{font-size:18px;}
	.st23{fill:none;stroke:#B3B3B3;stroke-width:0.75;stroke-miterlimit:10;stroke-dasharray:3;}
	.st24{fill:#29ABE2;stroke:#2F528F;stroke-miterlimit:8;}
	.st25{font-size:14px;}
	.st26{fill:#39B54A;}
	.st27{fill:#009245;}
	.st28{fill:#DDD1B4;}
	.st29{fill:#9C8156;}
	.st30{fill:#BC9F77;}
	.st31{fill:#8CC63F;}
	.st32{fill:#C9B292;}
	.st33{fill:none;stroke:#C69C6D;stroke-miterlimit:10;}
	.st34{fill:none;stroke:#C69C6D;stroke-miterlimit:10;stroke-dasharray:5.7093,5.7093;}
	.st35{fill:#F09B36;}
	.st36{fill:#754C24;}
	.st37{fill:none;stroke:#C7B299;stroke-miterlimit:10;}
	.st38{fill:none;stroke:#C7B299;stroke-miterlimit:10;stroke-dasharray:5.6777,5.6777;}
	.st39{fill:none;stroke:#C69C6D;stroke-miterlimit:10;stroke-dasharray:5.6777,5.6777;}
</style>
<g>
	<rect x="403" y="23.3" class="st0" width="425.5" height="259.9"/>
	<g>
		<g>
			<path class="st1" d="M659.6,149.6H422.5c-6.6,0-12-5.4-12-12v-48c0-6.6,5.4-12,12-12h237.1c6.6,0,12,5.4,12,12v48
				C671.6,144.2,666.2,149.6,659.6,149.6z"/>
		</g>
		<g>
			<g>
				<line class="st2" x1="411.5" y1="97.8" x2="398.9" y2="97.8"/>
			</g>
			<circle class="st3" cx="392.2" cy="97.8" r="6.7"/>
		</g>
		<text transform="matrix(1 0 0 1 352.4906 86.3071)" class="st4 st5">TCP Port</text>
		<g>
			<g>
				<path class="st6" d="M423.7,96.3c-0.9,1-2,2.2-1.9,2.8c0.2,2.1,4.6,2.1,4.5,4.1c-0.1,2-4.7,3.3-4.8,5.3s4.6,2.1,4.5,4.1
					c-0.1,2-4.7,3.3-4.8,5.3s4.6,2.1,4.5,4.1c-0.1,1.9-4.5,3.1-4.8,5.3c-0.2,1.4,1.3,2.7,4.5,4.1"/>
				<g>
					<polygon class="st7" points="425,89.4 418.7,98.1 423.2,96.7 426.6,100 					"/>
				</g>
			</g>
		</g>
		<g>
			<rect x="477.7" y="83.6" class="st8" width="106.6" height="27"/>
		</g>
		<text transform="matrix(1 0 0 1 483.2662 101.1398)" class="st9 st4 st10">Key-Value Engine</text>
		<g>
			<rect x="477.7" y="116.9" class="st8" width="106.6" height="27"/>
		</g>
		<text transform="matrix(1 0 0 1 483.2043 134.3589)" class="st9 st4 st10">Key-Value Index</text>
		<text transform="matrix(1 0 0 1 435.5745 97.14)" class="st9 st4 st5">Shard</text>
		<g>
			<rect x="590.4" y="83.6" class="st8" width="71.9" height="60.2"/>
		</g>
		<text transform="matrix(1 0 0 1 603.1581 110.6402)"><tspan x="0" y="0" class="st9 st4 st10">Memory</tspan><tspan x="5.8" y="12" class="st9 st4 st10">Pools</tspan></text>
		<g>
			<g>
				<path class="st1" d="M694,110c-6.3,0-11.5-5.2-11.5-11.5V73.7c0-6.3,5.2-11.5,11.5-11.5h115.6c6.3,0,11.5,5.2,11.5,11.5v24.8
					c0,6.3-5.2,11.5-11.5,11.5H694z"/>
				<path class="st8" d="M809.6,62.7c6.1,0,11,4.9,11,11v24.8c0,6.1-4.9,11-11,11H694c-6.1,0-11-4.9-11-11V73.7c0-6.1,4.9-11,11-11
					H809.6 M809.6,61.7H694c-6.6,0-12,5.4-12,12v24.8c0,6.6,5.4,12,12,12h115.6c6.6,0,12-5.4,12-12V73.7
					C821.6,67.1,816.2,61.7,809.6,61.7L809.6,61.7z"/>
			</g>
			<text transform="matrix(1 0 0 1 705.4582 77.3038)"><tspan x="0" y="0" class="st9 st4 st10">Active </tspan><tspan x="6.6" y="12" class="st9 st4 st10">Data </tspan><tspan x="-1.7" y="24" class="st9 st4 st10">Object</tspan></text>
			<g>
				<g>
					<rect x="760.6" y="65.3" class="st11" width="45.1" height="41.2"/>
					<g>
						<polyline class="st12" points="805.7,105 805.7,106.5 804.2,106.5 						"/>
						<line class="st13" x1="801.4" y1="106.5" x2="763.5" y2="106.5"/>
						<polyline class="st12" points="762.1,106.5 760.6,106.5 760.6,105 						"/>
						<line class="st14" x1="760.6" y1="102.1" x2="760.6" y2="68.3"/>
						<polyline class="st12" points="760.6,66.8 760.6,65.3 762.1,65.3 						"/>
						<line class="st13" x1="764.9" y1="65.3" x2="802.8" y2="65.3"/>
						<polyline class="st12" points="804.2,65.3 805.7,65.3 805.7,66.8 						"/>
						<line class="st14" x1="805.7" y1="69.8" x2="805.7" y2="103.6"/>
					</g>
				</g>
				<text transform="matrix(1 0 0 1 762.8845 77.3038)"><tspan x="0" y="0" class="st9 st4 st10">Custom</tspan><tspan x="0" y="12" class="st9 st4 st10">ADO </tspan><tspan x="0" y="24" class="st9 st4 st10">Plugin</tspan></text>
			</g>
			<g>
				<line class="st15" x1="739.2" y1="61.8" x2="739.2" y2="110.5"/>
			</g>
			<rect x="684" y="80.8" class="st16" width="12.7" height="12.7"/>
			<g>
				<g>
					<line class="st17" x1="647.1" y1="93.4" x2="648.1" y2="93.1"/>
					<line class="st18" x1="649.9" y1="92.4" x2="682.1" y2="81.5"/>
					<line class="st17" x1="683" y1="81.1" x2="684" y2="80.8"/>
				</g>
			</g>
			<line class="st19" x1="659.8" y1="106.1" x2="696.7" y2="93.5"/>
			<line class="st19" x1="659.8" y1="93.4" x2="696.7" y2="80.8"/>
			<rect x="647.1" y="93.4" class="st16" width="12.7" height="12.7"/>
			<g>
				<g>
					<path class="st6" d="M749.8,73.5c-0.5,1-2.4,2.5-2.3,3.3c0.2,1.8,4,2,4,3.6c0,1.7-4,2.7-4,4.4s4,1.9,4,3.6c0,1.7-4,2.7-4,4.4
						c0,1.7,4,1.9,4,3.6c0,1.7-3.8,2.5-4,4.4c-0.1,1.2,1.2,2.4,4,3.6"/>
					<g>
						<polygon class="st7" points="749.9,68.5 746.5,75.2 749.4,73.8 752.1,75.7 						"/>
					</g>
				</g>
			</g>
		</g>
		<g>
			<line class="st19" x1="647.1" y1="129.9" x2="684" y2="145.8"/>
			<g>
				<path class="st1" d="M694,163.3c-6.3,0-11.5-5.2-11.5-11.5v-24.8c0-6.3,5.2-11.5,11.5-11.5h115.6c6.3,0,11.5,5.2,11.5,11.5v24.8
					c0,6.3-5.2,11.5-11.5,11.5H694z"/>
				<path class="st8" d="M809.6,115.9c6.1,0,11,4.9,11,11v24.8c0,6.1-4.9,11-11,11H694c-6.1,0-11-4.9-11-11v-24.8
					c0-6.1,4.9-11,11-11H809.6 M809.6,114.9H694c-6.6,0-12,5.4-12,12v24.8c0,6.6,5.4,12,12,12h115.6c6.6,0,12-5.4,12-12v-24.8
					C821.6,120.3,816.2,114.9,809.6,114.9L809.6,114.9z"/>
			</g>
			<text transform="matrix(1 0 0 1 705.4582 130.5538)"><tspan x="0" y="0" class="st9 st4 st10">Active </tspan><tspan x="6.6" y="12" class="st9 st4 st10">Data </tspan><tspan x="-1.7" y="24" class="st9 st4 st10">Object</tspan></text>
			<g>
				<g>
					<rect x="760.6" y="118.6" class="st11" width="45.1" height="41.2"/>
					<g>
						<polyline class="st12" points="805.7,158.3 805.7,159.8 804.2,159.8 						"/>
						<line class="st13" x1="801.4" y1="159.8" x2="763.5" y2="159.8"/>
						<polyline class="st12" points="762.1,159.8 760.6,159.8 760.6,158.3 						"/>
						<line class="st14" x1="760.6" y1="155.3" x2="760.6" y2="121.5"/>
						<polyline class="st12" points="760.6,120.1 760.6,118.6 762.1,118.6 						"/>
						<line class="st13" x1="764.9" y1="118.6" x2="802.8" y2="118.6"/>
						<polyline class="st12" points="804.2,118.6 805.7,118.6 805.7,120.1 						"/>
						<line class="st14" x1="805.7" y1="123" x2="805.7" y2="156.8"/>
					</g>
				</g>
				<text transform="matrix(1 0 0 1 762.8845 130.5538)"><tspan x="0" y="0" class="st9 st4 st10">Custom</tspan><tspan x="0" y="12" class="st9 st4 st10">ADO </tspan><tspan x="0" y="24" class="st9 st4 st10">Plugin</tspan></text>
			</g>
			<g>
				<line class="st15" x1="739.2" y1="115.1" x2="739.2" y2="163.8"/>
			</g>
			<rect x="684" y="133.1" class="st16" width="12.7" height="12.7"/>
			<g>
				<g>
					<polyline class="st17" points="660.7,117.6 659.8,117.2 660.7,117.6 					"/>
					<line class="st20" x1="662.6" y1="118.4" x2="694.8" y2="132.3"/>
					<polyline class="st17" points="695.8,132.7 696.7,133.1 695.8,132.7 					"/>
					<line class="st20" x1="693.9" y1="131.9" x2="661.7" y2="118"/>
				</g>
			</g>
			<rect x="647.1" y="117.2" class="st16" width="12.7" height="12.7"/>
			<g>
				<g>
					<path class="st6" d="M749.8,126.7c-0.5,1-2.4,2.5-2.3,3.3c0.2,1.8,4,2,4,3.6c0,1.7-4,2.7-4,4.4s4,1.9,4,3.6c0,1.7-4,2.7-4,4.4
						c0,1.7,4,1.9,4,3.6c0,1.7-3.8,2.5-4,4.4c-0.1,1.2,1.2,2.4,4,3.6"/>
					<g>
						<polygon class="st7" points="749.9,121.8 746.5,128.5 749.4,127.1 752.1,129 						"/>
					</g>
				</g>
			</g>
			<line class="st19" x1="647.1" y1="117.2" x2="684" y2="133.1"/>
		</g>
		<g>
			<g>
				<line class="st2" x1="411.5" y1="116.9" x2="398.9" y2="116.9"/>
			</g>
			<circle class="st21" cx="392.2" cy="116.9" r="6.7"/>
		</g>
		<g>
			<g>
				<line class="st2" x1="411.5" y1="124.7" x2="398.9" y2="124.7"/>
			</g>
			<circle class="st21" cx="392.2" cy="124.7" r="6.7"/>
		</g>
		<text transform="matrix(1 0 0 1 332.4997 142.6404)" class="st4 st5">Connections</text>
	</g>
	<g>
		<g>
			<path class="st1" d="M659.6,263.6H422.5c-6.6,0-12-5.4-12-12v-48c0-6.6,5.4-12,12-12h237.1c6.6,0,12,5.4,12,12v48
				C671.6,258.2,666.2,263.6,659.6,263.6z"/>
		</g>
		<g>
			<g>
				<line class="st2" x1="411.5" y1="211.8" x2="398.9" y2="211.8"/>
			</g>
			<circle class="st3" cx="392.2" cy="211.8" r="6.7"/>
		</g>
		<text transform="matrix(1 0 0 1 352.4906 200.3071)" class="st4 st5">TCP Port</text>
		<g>
			<g>
				<path class="st6" d="M423.7,210.3c-0.9,1-2,2.2-1.9,2.8c0.2,2.1,4.6,2.1,4.5,4.1c-0.1,2-4.7,3.3-4.8,5.3s4.6,2.1,4.5,4.1
					c-0.1,2-4.7,3.3-4.8,5.3s4.6,2.1,4.5,4.1c-0.1,1.9-4.5,3.1-4.8,5.3c-0.2,1.4,1.3,2.7,4.5,4.1"/>
				<g>
					<polygon class="st7" points="425,203.4 418.7,212.1 423.2,210.7 426.6,214 					"/>
				</g>
			</g>
		</g>
		<g>
			<rect x="477.7" y="197.6" class="st8" width="106.6" height="27"/>
		</g>
		<text transform="matrix(1 0 0 1 483.2662 215.1398)" class="st9 st4 st10">Key-Value Engine</text>
		<g>
			<rect x="477.7" y="230.9" class="st8" width="106.6" height="27"/>
		</g>
		<text transform="matrix(1 0 0 1 483.2043 248.3589)" class="st9 st4 st10">Key-Value Index</text>
		<text transform="matrix(1 0 0 1 435.5745 211.14)" class="st9 st4 st5">Shard</text>
		<g>
			<rect x="590.4" y="197.6" class="st8" width="71.9" height="60.2"/>
		</g>
		<text transform="matrix(1 0 0 1 603.1581 224.6402)"><tspan x="0" y="0" class="st9 st4 st10">Memory</tspan><tspan x="5.8" y="12" class="st9 st4 st10">Pools</tspan></text>
		<g>
			<g>
				<path class="st1" d="M694,224c-6.3,0-11.5-5.2-11.5-11.5v-24.8c0-6.3,5.2-11.5,11.5-11.5h115.6c6.3,0,11.5,5.2,11.5,11.5v24.8
					c0,6.3-5.2,11.5-11.5,11.5H694z"/>
				<path class="st8" d="M809.6,176.7c6.1,0,11,4.9,11,11v24.8c0,6.1-4.9,11-11,11H694c-6.1,0-11-4.9-11-11v-24.8
					c0-6.1,4.9-11,11-11H809.6 M809.6,175.7H694c-6.6,0-12,5.4-12,12v24.8c0,6.6,5.4,12,12,12h115.6c6.6,0,12-5.4,12-12v-24.8
					C821.6,181.1,816.2,175.7,809.6,175.7L809.6,175.7z"/>
			</g>
			<text transform="matrix(1 0 0 1 705.4582 191.3038)"><tspan x="0" y="0" class="st9 st4 st10">Active </tspan><tspan x="6.6" y="12" class="st9 st4 st10">Data </tspan><tspan x="-1.7" y="24" class="st9 st4 st10">Object</tspan></text>
			<g>
				<g>
					<rect x="760.6" y="179.3" class="st11" width="45.1" height="41.2"/>
					<g>
						<polyline class="st12" points="805.7,219 805.7,220.5 804.2,220.5 						"/>
						<line class="st13" x1="801.4" y1="220.5" x2="763.5" y2="220.5"/>
						<polyline class="st12" points="762.1,220.5 760.6,220.5 760.6,219 						"/>
						<line class="st14" x1="760.6" y1="216.1" x2="760.6" y2="182.3"/>
						<polyline class="st12" points="760.6,180.8 760.6,179.3 762.1,179.3 						"/>
						<line class="st13" x1="764.9" y1="179.3" x2="802.8" y2="179.3"/>
						<polyline class="st12" points="804.2,179.3 805.7,179.3 805.7,180.8 						"/>
						<line class="st14" x1="805.7" y1="183.8" x2="805.7" y2="217.6"/>
					</g>
				</g>
				<text transform="matrix(1 0 0 1 762.8845 191.3038)"><tspan x="0" y="0" class="st9 st4 st10">Custom</tspan><tspan x="0" y="12" class="st9 st4 st10">ADO </tspan><tspan x="0" y="24" class="st9 st4 st10">Plugin</tspan></text>
			</g>
			<g>
				<line class="st15" x1="739.2" y1="175.8" x2="739.2" y2="224.5"/>
			</g>
			<rect x="684" y="194.8" class="st16" width="12.7" height="12.7"/>
			<g>
				<g>
					<line class="st17" x1="647.1" y1="207.4" x2="648.1" y2="207.1"/>
					<line class="st18" x1="649.9" y1="206.4" x2="682.1" y2="195.5"/>
					<line class="st17" x1="683" y1="195.1" x2="684" y2="194.8"/>
				</g>
			</g>
			<line class="st19" x1="659.8" y1="220.1" x2="696.7" y2="207.5"/>
			<line class="st19" x1="659.8" y1="207.4" x2="696.7" y2="194.8"/>
			<rect x="647.1" y="207.4" class="st16" width="12.7" height="12.7"/>
			<g>
				<g>
					<path class="st6" d="M749.8,187.5c-0.5,1-2.4,2.5-2.3,3.3c0.2,1.8,4,2,4,3.6c0,1.7-4,2.7-4,4.4s4,1.9,4,3.6c0,1.7-4,2.7-4,4.4
						c0,1.7,4,1.9,4,3.6c0,1.7-3.8,2.5-4,4.4c-0.1,1.2,1.2,2.4,4,3.6"/>
					<g>
						<polygon class="st7" points="749.9,182.5 746.5,189.2 749.4,187.8 752.1,189.7 						"/>
					</g>
				</g>
			</g>
		</g>
		<g>
			<line class="st19" x1="647.1" y1="243.9" x2="684" y2="259.8"/>
			<g>
				<path class="st1" d="M694,277.3c-6.3,0-11.5-5.2-11.5-11.5v-24.8c0-6.3,5.2-11.5,11.5-11.5h115.6c6.3,0,11.5,5.2,11.5,11.5v24.8
					c0,6.3-5.2,11.5-11.5,11.5H694z"/>
				<path class="st8" d="M809.6,229.9c6.1,0,11,4.9,11,11v24.8c0,6.1-4.9,11-11,11H694c-6.1,0-11-4.9-11-11v-24.8
					c0-6.1,4.9-11,11-11H809.6 M809.6,228.9H694c-6.6,0-12,5.4-12,12v24.8c0,6.6,5.4,12,12,12h115.6c6.6,0,12-5.4,12-12v-24.8
					C821.6,234.3,816.2,228.9,809.6,228.9L809.6,228.9z"/>
			</g>
			<text transform="matrix(1 0 0 1 705.4582 244.5538)"><tspan x="0" y="0" class="st9 st4 st10">Active </tspan><tspan x="6.6" y="12" class="st9 st4 st10">Data </tspan><tspan x="-1.7" y="24" class="st9 st4 st10">Object</tspan></text>
			<g>
				<g>
					<rect x="760.6" y="232.6" class="st11" width="45.1" height="41.2"/>
					<g>
						<polyline class="st12" points="805.7,272.3 805.7,273.8 804.2,273.8 						"/>
						<line class="st13" x1="801.4" y1="273.8" x2="763.5" y2="273.8"/>
						<polyline class="st12" points="762.1,273.8 760.6,273.8 760.6,272.3 						"/>
						<line class="st14" x1="760.6" y1="269.3" x2="760.6" y2="235.5"/>
						<polyline class="st12" points="760.6,234.1 760.6,232.6 762.1,232.6 						"/>
						<line class="st13" x1="764.9" y1="232.6" x2="802.8" y2="232.6"/>
						<polyline class="st12" points="804.2,232.6 805.7,232.6 805.7,234.1 						"/>
						<line class="st14" x1="805.7" y1="237" x2="805.7" y2="270.8"/>
					</g>
				</g>
				<text transform="matrix(1 0 0 1 762.8845 244.5538)"><tspan x="0" y="0" class="st9 st4 st10">Custom</tspan><tspan x="0" y="12" class="st9 st4 st10">ADO </tspan><tspan x="0" y="24" class="st9 st4 st10">Plugin</tspan></text>
			</g>
			<g>
				<line class="st15" x1="739.2" y1="229.1" x2="739.2" y2="277.8"/>
			</g>
			<rect x="684" y="247.1" class="st16" width="12.7" height="12.7"/>
			<g>
				<g>
					<polyline class="st17" points="660.7,231.6 659.8,231.2 660.7,231.6 					"/>
					<line class="st20" x1="662.6" y1="232.4" x2="694.8" y2="246.3"/>
					<polyline class="st17" points="695.8,246.7 696.7,247.1 695.8,246.7 					"/>
					<line class="st20" x1="693.9" y1="245.9" x2="661.7" y2="232"/>
				</g>
			</g>
			<rect x="647.1" y="231.2" class="st16" width="12.7" height="12.7"/>
			<g>
				<g>
					<path class="st6" d="M749.8,240.7c-0.5,1-2.4,2.5-2.3,3.3c0.2,1.8,4,2,4,3.6c0,1.7-4,2.7-4,4.4s4,1.9,4,3.6c0,1.7-4,2.7-4,4.4
						c0,1.7,4,1.9,4,3.6c0,1.7-3.8,2.5-4,4.4c-0.1,1.2,1.2,2.4,4,3.6"/>
					<g>
						<polygon class="st7" points="749.9,235.8 746.5,242.5 749.4,241.1 752.1,243 						"/>
					</g>
				</g>
			</g>
			<line class="st19" x1="647.1" y1="231.2" x2="684" y2="247.1"/>
		</g>
		<g>
			<g>
				<line class="st2" x1="411.5" y1="230.9" x2="398.9" y2="230.9"/>
			</g>
			<circle class="st21" cx="392.2" cy="230.9" r="6.7"/>
		</g>
		<g>
			<g>
				<line class="st2" x1="411.5" y1="238.7" x2="398.9" y2="238.7"/>
			</g>
			<circle class="st21" cx="392.2" cy="238.7" r="6.7"/>
		</g>
		<text transform="matrix(1 0 0 1 332.4997 256.6404)" class="st4 st5">Connections</text>
	</g>
	<text transform="matrix(1 0 0 1 414.1386 47.2467)" class="st9 st4 st22">MCAS Server</text>
	<g>
		<ellipse class="st7" cx="555.2" cy="156.7" rx="2.3" ry="2.2"/>
		<ellipse class="st7" cx="555.2" cy="168.4" rx="2.3" ry="2.2"/>
		<ellipse class="st7" cx="555.2" cy="180.2" rx="2.3" ry="2.2"/>
	</g>
</g>
<line class="st23" x1="385.5" y1="116.6" x2="321.8" y2="116.6"/>
<line class="st23" x1="385.5" y1="125.1" x2="321.8" y2="125.1"/>
<line class="st23" x1="385.5" y1="231.1" x2="321.8" y2="231.1"/>
<line class="st23" x1="385.5" y1="239.6" x2="321.8" y2="239.6"/>
<g>
	<g>
		<path class="st8" d="M217.8,101.8c-1.5-9.4,6.2-18.1,17.1-19.4c4.4-0.5,8.9,0.3,12.8,2.2c4.1-6.6,13.7-9.2,21.4-5.6
			c1.3,0.6,2.6,1.4,3.7,2.3c3.2-5.5,11-7.7,17.3-5c1.8,0.8,3.3,1.9,4.5,3.2c5.1-5.2,14.2-5.9,20.3-1.4c2.5,1.9,4.3,4.4,4.9,7.2
			c8.4,2,13.4,9.5,11.1,16.7c-0.2,0.6-0.4,1.2-0.7,1.8c6.8,7.6,5.1,18.4-3.7,24.2c-2.7,1.8-6,3-9.4,3.4c-0.1,8.1-7.8,14.7-17.3,14.6
			c-3.2,0-6.3-0.8-8.9-2.2c-3.2,9.1-14.4,14.3-24.9,11.5c-4.4-1.2-8.3-3.6-10.8-6.9c-10.8,5.6-24.9,2.6-31.4-6.8
			c-0.1-0.1-0.2-0.2-0.2-0.4c-7.1,0.7-13.5-3.6-14.3-9.7c-0.4-3.2,0.8-6.5,3.4-8.9c-6.1-3.1-8.2-9.9-4.6-15.3
			c2.1-3.1,5.7-5.1,9.8-5.5L217.8,101.8z"/>
		<path class="st24" d="M217.8,101.8c-1.5-9.4,6.2-18.1,17.1-19.4c4.4-0.5,8.9,0.3,12.8,2.2c4.1-6.6,13.7-9.2,21.4-5.6
			c1.3,0.6,2.6,1.4,3.7,2.3c3.2-5.5,11-7.7,17.3-5c1.8,0.8,3.3,1.9,4.5,3.2c5.1-5.2,14.2-5.9,20.3-1.4c2.5,1.9,4.3,4.4,4.9,7.2
			c8.4,2,13.4,9.5,11.1,16.7c-0.2,0.6-0.4,1.2-0.7,1.8c6.8,7.6,5.1,18.4-3.7,24.2c-2.7,1.8-6,3-9.4,3.4c-0.1,8.1-7.8,14.7-17.3,14.6
			c-3.2,0-6.3-0.8-8.9-2.2c-3.2,9.1-14.4,14.3-24.9,11.5c-4.4-1.2-8.3-3.6-10.8-6.9c-10.8,5.6-24.9,2.6-31.4-6.8
			c-0.1-0.1-0.2-0.2-0.2-0.4c-7.1,0.7-13.5-3.6-14.3-9.7c-0.4-3.2,0.8-6.5,3.4-8.9c-6.1-3.1-8.2-9.9-4.6-15.3
			c2.1-3.1,5.7-5.1,9.8-5.5L217.8,101.8z"/>
		<path class="st24" d="M218.4,104.5c-0.3-0.9-0.5-1.8-0.7-2.7 M247.7,84.6c1.4,0.7,2.7,1.6,3.9,2.5 M271.8,83.7
			c0.2-0.9,0.6-1.8,1.1-2.6 M292.4,82.3c0.6-1.1,1.3-2.1,2.2-3 M319.8,85c0.2,0.8,0.2,1.6,0.2,2.4 M330.1,103.6
			c-1,1.9-2.4,3.7-4.3,5 M307.3,117.9c5.9,2.5,9.7,7.7,9.6,13.4 M291.6,140c-0.1,1.2-0.4,2.4-0.8,3.6 M255,148.2
			c-0.8-1-1.5-2.1-2-3.3 M226.7,140.3c-1.1,0.4-2.2,0.6-3.3,0.7 M220.1,123.9c-2.6,0.2-5.2-0.3-7.5-1.5"/>
	</g>
	<text transform="matrix(1 0 0 1 251.0685 103.1311)"><tspan x="0" y="0" class="st9 st4 st25">RDMA</tspan><tspan x="-24.6" y="16.8" class="st9 st4 st25">RoCE 100GbE</tspan><tspan x="-7.1" y="33.6" class="st9 st4 st25">Network</tspan></text>
</g>
<g>
	<g>
		<path class="st8" d="M222.6,213.9c-1.5-9.4,6.2-18.1,17.1-19.4c4.4-0.5,8.9,0.3,12.8,2.2c4.1-6.6,13.7-9.2,21.4-5.6
			c1.3,0.6,2.6,1.4,3.7,2.3c3.2-5.5,11-7.7,17.3-5c1.8,0.8,3.3,1.9,4.5,3.2c5.1-5.2,14.2-5.9,20.3-1.4c2.5,1.9,4.3,4.4,4.9,7.2
			c8.4,2,13.4,9.5,11.1,16.7c-0.2,0.6-0.4,1.2-0.7,1.8c6.8,7.6,5.1,18.4-3.7,24.2c-2.7,1.8-6,3-9.4,3.4c-0.1,8.1-7.8,14.7-17.3,14.6
			c-3.2,0-6.3-0.8-8.9-2.2c-3.2,9.1-14.4,14.3-24.9,11.5c-4.4-1.2-8.3-3.6-10.8-6.9c-10.8,5.6-24.9,2.6-31.4-6.8
			c-0.1-0.1-0.2-0.2-0.2-0.4c-7.1,0.7-13.5-3.6-14.3-9.7c-0.4-3.2,0.8-6.5,3.4-8.9c-6.1-3.1-8.2-9.9-4.6-15.3
			c2.1-3.1,5.7-5.1,9.8-5.5L222.6,213.9z"/>
		<path class="st24" d="M222.6,213.9c-1.5-9.4,6.2-18.1,17.1-19.4c4.4-0.5,8.9,0.3,12.8,2.2c4.1-6.6,13.7-9.2,21.4-5.6
			c1.3,0.6,2.6,1.4,3.7,2.3c3.2-5.5,11-7.7,17.3-5c1.8,0.8,3.3,1.9,4.5,3.2c5.1-5.2,14.2-5.9,20.3-1.4c2.5,1.9,4.3,4.4,4.9,7.2
			c8.4,2,13.4,9.5,11.1,16.7c-0.2,0.6-0.4,1.2-0.7,1.8c6.8,7.6,5.1,18.4-3.7,24.2c-2.7,1.8-6,3-9.4,3.4c-0.1,8.1-7.8,14.7-17.3,14.6
			c-3.2,0-6.3-0.8-8.9-2.2c-3.2,9.1-14.4,14.3-24.9,11.5c-4.4-1.2-8.3-3.6-10.8-6.9c-10.8,5.6-24.9,2.6-31.4-6.8
			c-0.1-0.1-0.2-0.2-0.2-0.4c-7.1,0.7-13.5-3.6-14.3-9.7c-0.4-3.2,0.8-6.5,3.4-8.9c-6.1-3.1-8.2-9.9-4.6-15.3
			c2.1-3.1,5.7-5.1,9.8-5.5L222.6,213.9z"/>
		<path class="st24" d="M223.3,216.6c-0.3-0.9-0.5-1.8-0.7-2.7 M252.5,196.7c1.4,0.7,2.7,1.6,3.9,2.5 M276.6,195.8
			c0.2-0.9,0.6-1.8,1.1-2.6 M297.2,194.4c0.6-1.1,1.3-2.1,2.2-3 M324.6,197.1c0.2,0.8,0.2,1.6,0.2,2.4 M334.9,215.8
			c-1,1.9-2.4,3.7-4.3,5 M312.1,230c5.9,2.5,9.7,7.7,9.6,13.4 M296.4,252.1c-0.1,1.2-0.4,2.4-0.8,3.6 M259.8,260.3
			c-0.8-1-1.5-2.1-2-3.3 M231.6,252.4c-1.1,0.4-2.2,0.6-3.3,0.7 M224.9,236.1c-2.6,0.2-5.2-0.3-7.5-1.5"/>
	</g>
	<text transform="matrix(1 0 0 1 251.5595 215.2429)"><tspan x="0" y="0" class="st9 st4 st25">T</tspan><tspan x="8" y="0" class="st9 st4 st25">C</tspan><tspan x="16.9" y="0" class="st9 st4 st25">P/IP </tspan><tspan x="-3.2" y="16.8" class="st9 st4 st25">Ethernet</tspan><tspan x="-2.8" y="33.6" class="st9 st4 st25">Network</tspan></text>
</g>
<g>
	<rect x="20.5" y="16.9" class="st0" width="142.5" height="72.5"/>
	<g>
		<path class="st1" d="M61.7,84.7c-6.3,0-11.5-5.2-11.5-11.5V48.3c0-6.3,5.2-11.5,11.5-11.5h85.1c6.3,0,11.5,5.2,11.5,11.5v24.8
			c0,6.3-5.2,11.5-11.5,11.5H61.7z"/>
		<path class="st8" d="M146.8,37.3c6.1,0,11,4.9,11,11v24.8c0,6.1-4.9,11-11,11H61.7c-6.1,0-11-4.9-11-11V48.3c0-6.1,4.9-11,11-11
			H146.8 M146.8,36.3H61.7c-6.6,0-12,5.4-12,12v24.8c0,6.6,5.4,12,12,12h85.1c6.6,0,12-5.4,12-12V48.3
			C158.8,41.7,153.4,36.3,146.8,36.3L146.8,36.3z"/>
	</g>
	<text transform="matrix(1 0 0 1 121.4503 51.1109)"><tspan x="0" y="0" class="st9 st4 st10">MCAS</tspan><tspan x="0" y="12" class="st9 st4 st10">Client </tspan><tspan x="0" y="24" class="st9 st4 st10">API</tspan></text>
	<g>
		<g>
			<rect x="65.3" y="40.2" class="st11" width="45.1" height="41.2"/>
			<g>
				<polyline class="st12" points="110.3,79.9 110.3,81.4 108.8,81.4 				"/>
				<line class="st13" x1="106" y1="81.4" x2="68.2" y2="81.4"/>
				<polyline class="st12" points="66.8,81.4 65.3,81.4 65.3,79.9 				"/>
				<line class="st14" x1="65.3" y1="76.9" x2="65.3" y2="43.1"/>
				<polyline class="st12" points="65.3,41.7 65.3,40.2 66.8,40.2 				"/>
				<line class="st13" x1="69.6" y1="40.2" x2="107.4" y2="40.2"/>
				<polyline class="st12" points="108.8,40.2 110.3,40.2 110.3,41.7 				"/>
				<line class="st14" x1="110.3" y1="44.6" x2="110.3" y2="78.4"/>
			</g>
		</g>
		<text transform="matrix(1 0 0 1 67.4938 52.142)"><tspan x="0" y="0" class="st9 st4 st10">Custom</tspan><tspan x="0" y="12" class="st9 st4 st10">ADO </tspan><tspan x="0" y="24" class="st9 st4 st10">Adapter</tspan></text>
	</g>
	<g>
		<line class="st15" x1="114.6" y1="36.4" x2="114.6" y2="85.1"/>
	</g>
	<g>
		<g>
			<path class="st6" d="M44.1,47.7c-0.5,1-2.4,2.5-2.3,3.3c0.2,1.8,4,2,4,3.6c0,1.7-4,2.7-4,4.4c0,1.7,4,1.9,4,3.6
				c0,1.7-4,2.7-4,4.4c0,1.7,4,1.9,4,3.6c0,1.7-3.8,2.5-4,4.4c-0.1,1.2,1.2,2.4,4,3.6"/>
			<g>
				<polygon class="st7" points="44.3,42.7 40.8,49.4 43.8,48 46.5,49.9 				"/>
			</g>
		</g>
	</g>
	<text transform="matrix(1 0 0 1 24.7542 31.0419)" class="st9 st4 st5">Application</text>
</g>
<g>
	<rect x="20.8" y="228.4" class="st0" width="142.5" height="72.5"/>
	<g>
		<path class="st1" d="M62,296.2c-6.3,0-11.5-5.2-11.5-11.5v-24.8c0-6.3,5.2-11.5,11.5-11.5h85.1c6.3,0,11.5,5.2,11.5,11.5v24.8
			c0,6.3-5.2,11.5-11.5,11.5H62z"/>
		<path class="st8" d="M147.1,248.8c6.1,0,11,4.9,11,11v24.8c0,6.1-4.9,11-11,11H62c-6.1,0-11-4.9-11-11v-24.8c0-6.1,4.9-11,11-11
			H147.1 M147.1,247.8H62c-6.6,0-12,5.4-12,12v24.8c0,6.6,5.4,12,12,12h85.1c6.6,0,12-5.4,12-12v-24.8
			C159.1,253.2,153.7,247.8,147.1,247.8L147.1,247.8z"/>
	</g>
	<text transform="matrix(1 0 0 1 121.7401 262.6006)"><tspan x="0" y="0" class="st9 st4 st10">MCAS</tspan><tspan x="0" y="12" class="st9 st4 st10">Client </tspan><tspan x="0" y="24" class="st9 st4 st10">API</tspan></text>
	<text transform="matrix(1 0 0 1 76.635 263.1735)"><tspan x="0" y="0" class="st9 st4 st10">Python</tspan><tspan x="-14.3" y="12" class="st9 st4 st10">Key-Value</tspan><tspan x="14.7" y="24" class="st9 st4 st10">API</tspan></text>
	<g>
		<line class="st15" x1="114.9" y1="247.9" x2="114.9" y2="296.6"/>
	</g>
	<g>
		<g>
			<path class="st6" d="M44.4,259.2c-0.5,1-2.4,2.5-2.3,3.3c0.2,1.8,4,2,4,3.6c0,1.7-4,2.7-4,4.4c0,1.7,4,1.9,4,3.6s-4,2.7-4,4.4
				c0,1.7,4,1.9,4,3.6c0,1.7-3.8,2.5-4,4.4c-0.1,1.2,1.2,2.4,4,3.6"/>
			<g>
				<polygon class="st7" points="44.6,254.2 41.1,260.9 44.1,259.5 46.8,261.4 				"/>
			</g>
		</g>
	</g>
	<text transform="matrix(1 0 0 1 25.0441 242.5315)" class="st9 st4 st5">Python Application</text>
</g>
<line class="st23" x1="218.4" y1="94.5" x2="163" y2="61.7"/>
<line class="st23" x1="216.2" y1="140.3" x2="163" y2="163.8"/>
<line class="st23" x1="213.9" y1="243.7" x2="163.3" y2="268.3"/>
<g>
	<rect x="20.5" y="122.7" class="st0" width="142.5" height="72.5"/>
	<g>
		<path class="st1" d="M61.7,190.4c-6.3,0-11.5-5.2-11.5-11.5v-24.8c0-6.3,5.2-11.5,11.5-11.5h85.1c6.3,0,11.5,5.2,11.5,11.5v24.8
			c0,6.3-5.2,11.5-11.5,11.5H61.7z"/>
		<path class="st8" d="M146.8,143.1c6.1,0,11,4.9,11,11v24.8c0,6.1-4.9,11-11,11H61.7c-6.1,0-11-4.9-11-11v-24.8c0-6.1,4.9-11,11-11
			H146.8 M146.8,142.1H61.7c-6.6,0-12,5.4-12,12v24.8c0,6.6,5.4,12,12,12h85.1c6.6,0,12-5.4,12-12v-24.8
			C158.8,147.5,153.4,142.1,146.8,142.1L146.8,142.1z"/>
	</g>
	<text transform="matrix(1 0 0 1 121.4503 156.8557)"><tspan x="0" y="0" class="st9 st4 st10">MCAS</tspan><tspan x="0" y="12" class="st9 st4 st10">Client </tspan><tspan x="0" y="24" class="st9 st4 st10">API</tspan></text>
	<text transform="matrix(1 0 0 1 57.355 157.4286)"><tspan x="0" y="0" class="st9 st4 st10">GPU-Direct</tspan><tspan x="4.7" y="12" class="st9 st4 st10">Key-Value</tspan><tspan x="33.7" y="24" class="st9 st4 st10">API</tspan></text>
	<g>
		<line class="st15" x1="114.6" y1="142.1" x2="114.6" y2="190.9"/>
	</g>
	<g>
		<g>
			<path class="st6" d="M44.1,153.4c-0.5,1-2.4,2.5-2.3,3.3c0.2,1.8,4,2,4,3.6c0,1.7-4,2.7-4,4.4c0,1.7,4,1.9,4,3.6
				c0,1.7-4,2.7-4,4.4c0,1.7,4,1.9,4,3.6c0,1.7-3.8,2.5-4,4.4c-0.1,1.2,1.2,2.4,4,3.6"/>
			<g>
				<polygon class="st7" points="44.3,148.5 40.8,155.1 43.8,153.8 46.5,155.7 				"/>
			</g>
		</g>
	</g>
	<text transform="matrix(1 0 0 1 24.7542 136.7867)" class="st9 st4 st5">GPU Application</text>
</g>
</svg>
